<?xml version="1.0" encoding="UTF-8"?>
<svg xmlns="http://www.w3.org/2000/svg" xmlns:xlink="http://www.w3.org/1999/xlink" viewBox="0 0 60 60" width="60px" height="60px">
<g id="surface128522953">
<path style=" stroke:none;fill-rule:nonzero;fill:rgb(40.000001%,30.19608%,90.196079%);fill-opacity:1;" d="M 22.332031 40.386719 C 23.945312 41.542969 27.949219 44.234375 28.777344 45.105469 C 29.601562 45.972656 28.820312 47.300781 28.820312 47.300781 L 30.058594 47.804688 C 30.332031 47.210938 31.980469 45.011719 33.078125 43.636719 C 34.070312 42.398438 34.933594 40.226562 34.960938 38.632812 C 35.054688 33.488281 28.226562 31.042969 25.0625 28.15625 C 23.507812 26.738281 24.742188 25.914062 24.742188 25.914062 L 23.691406 25.226562 C 19.617188 29.851562 15.324219 35.371094 22.332031 40.386719 Z M 25.84375 23.210938 C 29.78125 26.691406 36.714844 30.304688 37.203125 32.644531 C 37.839844 35.691406 36.378906 37.40625 36.378906 37.40625 L 37.164062 38.050781 C 37.59375 37.441406 38.066406 36.867188 38.507812 36.269531 C 40.289062 33.824219 42.011719 31.34375 43.765625 28.878906 C 47.773438 23.242188 46.273438 17.898438 40.234375 13.582031 C 37.160156 11.386719 34.171875 9.0625 31.066406 6.902344 C 29.324219 5.4375 30.515625 2.691406 30.515625 2.691406 L 29.78125 2.050781 C 29.78125 2.050781 23.210938 10.019531 22.636719 13.226562 C 22.089844 16.296875 21.90625 19.730469 25.84375 23.210938 Z M 46 54 L 44.683594 50 L 15.316406 50 L 14 54 L 22.378906 54 L 23.644531 58 L 36.433594 58 L 37.632812 54 Z M 46 54 "/>
</g>
</svg>
