<?xml version="1.0" encoding="UTF-8"?>
<svg xmlns="http://www.w3.org/2000/svg" xmlns:xlink="http://www.w3.org/1999/xlink" viewBox="0 0 30 30" width="30px" height="30px">
<g id="surface128281895">
<path style=" stroke:none;fill-rule:nonzero;fill:rgb(40.000001%,30.19608%,90.196079%);fill-opacity:1;" d="M 11.164062 20.195312 C 11.972656 20.769531 13.976562 22.117188 14.386719 22.550781 C 14.800781 22.988281 14.410156 23.652344 14.410156 23.652344 L 15.027344 23.902344 C 15.164062 23.605469 15.992188 22.507812 16.539062 21.820312 C 17.035156 21.199219 17.464844 20.113281 17.480469 19.316406 C 17.527344 16.742188 14.113281 15.523438 12.53125 14.078125 C 11.753906 13.367188 12.371094 12.957031 12.371094 12.957031 L 11.84375 12.613281 C 9.808594 14.925781 7.660156 17.6875 11.164062 20.195312 Z M 12.921875 11.605469 C 14.890625 13.34375 18.355469 15.152344 18.601562 16.320312 C 18.917969 17.84375 18.1875 18.703125 18.1875 18.703125 L 18.582031 19.023438 C 18.796875 18.722656 19.035156 18.433594 19.253906 18.132812 C 20.144531 16.910156 21.003906 15.671875 21.882812 14.4375 C 23.886719 11.621094 23.136719 8.949219 20.117188 6.789062 C 18.578125 5.691406 17.085938 4.53125 15.53125 3.453125 C 14.660156 2.71875 15.257812 1.34375 15.257812 1.34375 L 14.890625 1.023438 C 14.890625 1.023438 11.605469 5.007812 11.316406 6.613281 C 11.046875 8.148438 10.953125 9.863281 12.921875 11.605469 Z M 23 27 L 22.339844 25 L 7.660156 25 L 7 27 L 11.191406 27 L 11.820312 29 L 18.21875 29 L 18.816406 27 Z M 23 27 "/>
</g>
</svg>
